<mxfile host="app.diagrams.net" modified="2023-09-30T14:50:23.298Z" agent="Mozilla/5.0 (Windows NT 10.0; Win64; x64) AppleWebKit/537.36 (KHTML, like Gecko) Chrome/117.0.0.0 Safari/537.36 Edg/117.0.2045.41" etag="zBStsqUlY9iNA9otLNDs" version="22.0.0" type="device">
  <diagram name="Page-1" id="TKZ8qmtED5gmw88BQox_">
    <mxGraphModel dx="901" dy="414" grid="1" gridSize="10" guides="1" tooltips="1" connect="1" arrows="1" fold="1" page="1" pageScale="1" pageWidth="850" pageHeight="1100" math="0" shadow="0">
      <root>
        <mxCell id="0" />
        <mxCell id="1" parent="0" />
        <mxCell id="sCddKqGL02GCPFZwy7CX-7" value="" style="group" vertex="1" connectable="0" parent="1">
          <mxGeometry x="40" y="270" width="130" height="90" as="geometry" />
        </mxCell>
        <mxCell id="sCddKqGL02GCPFZwy7CX-8" value="" style="rounded=0;whiteSpace=wrap;html=1;" vertex="1" parent="sCddKqGL02GCPFZwy7CX-7">
          <mxGeometry width="130" height="90" as="geometry" />
        </mxCell>
        <mxCell id="sCddKqGL02GCPFZwy7CX-9" value="" style="sketch=0;outlineConnect=0;fontColor=#232F3E;gradientColor=none;fillColor=#232F3D;strokeColor=none;dashed=0;verticalLabelPosition=bottom;verticalAlign=top;align=center;html=1;fontSize=12;fontStyle=0;aspect=fixed;pointerEvents=1;shape=mxgraph.aws4.users;" vertex="1" parent="sCddKqGL02GCPFZwy7CX-7">
          <mxGeometry x="10" width="40" height="40" as="geometry" />
        </mxCell>
        <mxCell id="sCddKqGL02GCPFZwy7CX-10" value="" style="sketch=0;outlineConnect=0;fontColor=#232F3E;gradientColor=none;fillColor=#232F3D;strokeColor=none;dashed=0;verticalLabelPosition=bottom;verticalAlign=top;align=center;html=1;fontSize=12;fontStyle=0;aspect=fixed;pointerEvents=1;shape=mxgraph.aws4.client;" vertex="1" parent="sCddKqGL02GCPFZwy7CX-7">
          <mxGeometry x="75" y="2.25" width="39" height="38" as="geometry" />
        </mxCell>
        <mxCell id="sCddKqGL02GCPFZwy7CX-11" value="User" style="text;strokeColor=none;align=center;fillColor=none;html=1;verticalAlign=middle;whiteSpace=wrap;rounded=0;" vertex="1" parent="sCddKqGL02GCPFZwy7CX-7">
          <mxGeometry y="56.25" width="60" height="33.75" as="geometry" />
        </mxCell>
        <mxCell id="sCddKqGL02GCPFZwy7CX-12" value="Client machine" style="text;strokeColor=none;align=center;fillColor=none;html=1;verticalAlign=middle;whiteSpace=wrap;rounded=0;" vertex="1" parent="sCddKqGL02GCPFZwy7CX-7">
          <mxGeometry x="64.5" y="56.25" width="60" height="33.75" as="geometry" />
        </mxCell>
        <mxCell id="sCddKqGL02GCPFZwy7CX-14" style="edgeStyle=orthogonalEdgeStyle;rounded=0;orthogonalLoop=1;jettySize=auto;html=1;exitX=1;exitY=0.5;exitDx=0;exitDy=0;" edge="1" parent="1" source="sCddKqGL02GCPFZwy7CX-8" target="sCddKqGL02GCPFZwy7CX-13">
          <mxGeometry relative="1" as="geometry" />
        </mxCell>
        <mxCell id="sCddKqGL02GCPFZwy7CX-16" style="edgeStyle=orthogonalEdgeStyle;rounded=0;orthogonalLoop=1;jettySize=auto;html=1;exitX=0.5;exitY=1;exitDx=0;exitDy=0;exitPerimeter=0;" edge="1" parent="1" source="sCddKqGL02GCPFZwy7CX-18" target="sCddKqGL02GCPFZwy7CX-20">
          <mxGeometry relative="1" as="geometry" />
        </mxCell>
        <mxCell id="sCddKqGL02GCPFZwy7CX-19" style="edgeStyle=orthogonalEdgeStyle;rounded=0;orthogonalLoop=1;jettySize=auto;html=1;exitX=1;exitY=0.5;exitDx=0;exitDy=0;exitPerimeter=0;entryX=0;entryY=0.5;entryDx=0;entryDy=0;entryPerimeter=0;" edge="1" parent="1" source="sCddKqGL02GCPFZwy7CX-13" target="sCddKqGL02GCPFZwy7CX-18">
          <mxGeometry relative="1" as="geometry" />
        </mxCell>
        <mxCell id="sCddKqGL02GCPFZwy7CX-30" value="" style="group" vertex="1" connectable="0" parent="1">
          <mxGeometry x="350" y="257.75" width="440" height="270" as="geometry" />
        </mxCell>
        <mxCell id="sCddKqGL02GCPFZwy7CX-18" value="" style="sketch=0;points=[[0,0,0],[0.25,0,0],[0.5,0,0],[0.75,0,0],[1,0,0],[0,1,0],[0.25,1,0],[0.5,1,0],[0.75,1,0],[1,1,0],[0,0.25,0],[0,0.5,0],[0,0.75,0],[1,0.25,0],[1,0.5,0],[1,0.75,0]];outlineConnect=0;fontColor=#232F3E;fillColor=#8C4FFF;strokeColor=#ffffff;dashed=0;verticalLabelPosition=bottom;verticalAlign=top;align=center;html=1;fontSize=12;fontStyle=0;aspect=fixed;shape=mxgraph.aws4.resourceIcon;resIcon=mxgraph.aws4.cloudfront;" vertex="1" parent="sCddKqGL02GCPFZwy7CX-30">
          <mxGeometry x="6.5" y="33.75" width="47" height="47" as="geometry" />
        </mxCell>
        <mxCell id="sCddKqGL02GCPFZwy7CX-21" value="Amazon&lt;br&gt;CloudFront" style="text;strokeColor=none;align=center;fillColor=none;html=1;verticalAlign=middle;whiteSpace=wrap;rounded=0;" vertex="1" parent="sCddKqGL02GCPFZwy7CX-30">
          <mxGeometry width="60" height="33.75" as="geometry" />
        </mxCell>
        <mxCell id="sCddKqGL02GCPFZwy7CX-50" value="" style="rounded=1;arcSize=10;dashed=0;fillColor=none;gradientColor=none;strokeWidth=2;" vertex="1" parent="sCddKqGL02GCPFZwy7CX-30">
          <mxGeometry x="-170" y="-137.75" width="610" height="407.75" as="geometry" />
        </mxCell>
        <mxCell id="sCddKqGL02GCPFZwy7CX-51" value="" style="dashed=0;html=1;shape=mxgraph.aws3.cloud;fillColor=#F58536;gradientColor=none;dashed=0;" vertex="1" parent="sCddKqGL02GCPFZwy7CX-30">
          <mxGeometry x="-150" y="-157.75" width="52" height="36" as="geometry" />
        </mxCell>
        <mxCell id="sCddKqGL02GCPFZwy7CX-32" value="" style="group" vertex="1" connectable="0" parent="1">
          <mxGeometry x="230" y="257.75" width="60" height="79.75" as="geometry" />
        </mxCell>
        <mxCell id="sCddKqGL02GCPFZwy7CX-13" value="" style="sketch=0;points=[[0,0,0],[0.25,0,0],[0.5,0,0],[0.75,0,0],[1,0,0],[0,1,0],[0.25,1,0],[0.5,1,0],[0.75,1,0],[1,1,0],[0,0.25,0],[0,0.5,0],[0,0.75,0],[1,0.25,0],[1,0.5,0],[1,0.75,0]];outlineConnect=0;fontColor=#232F3E;fillColor=#8C4FFF;strokeColor=#ffffff;dashed=0;verticalLabelPosition=bottom;verticalAlign=top;align=center;html=1;fontSize=12;fontStyle=0;aspect=fixed;shape=mxgraph.aws4.resourceIcon;resIcon=mxgraph.aws4.route_53;" vertex="1" parent="sCddKqGL02GCPFZwy7CX-32">
          <mxGeometry x="7.5" y="34.75" width="45" height="45" as="geometry" />
        </mxCell>
        <mxCell id="sCddKqGL02GCPFZwy7CX-15" value="Amazon&lt;br&gt;Route 53" style="text;strokeColor=none;align=center;fillColor=none;html=1;verticalAlign=middle;whiteSpace=wrap;rounded=0;" vertex="1" parent="sCddKqGL02GCPFZwy7CX-32">
          <mxGeometry width="60" height="33.75" as="geometry" />
        </mxCell>
        <mxCell id="sCddKqGL02GCPFZwy7CX-35" value="" style="group" vertex="1" connectable="0" parent="1">
          <mxGeometry x="341" y="390" width="60" height="91" as="geometry" />
        </mxCell>
        <mxCell id="sCddKqGL02GCPFZwy7CX-20" value="" style="sketch=0;points=[[0,0,0],[0.25,0,0],[0.5,0,0],[0.75,0,0],[1,0,0],[0,1,0],[0.25,1,0],[0.5,1,0],[0.75,1,0],[1,1,0],[0,0.25,0],[0,0.5,0],[0,0.75,0],[1,0.25,0],[1,0.5,0],[1,0.75,0]];outlineConnect=0;fontColor=#232F3E;fillColor=#7AA116;strokeColor=#ffffff;dashed=0;verticalLabelPosition=bottom;verticalAlign=top;align=center;html=1;fontSize=12;fontStyle=0;aspect=fixed;shape=mxgraph.aws4.resourceIcon;resIcon=mxgraph.aws4.s3;" vertex="1" parent="sCddKqGL02GCPFZwy7CX-35">
          <mxGeometry x="6" width="48" height="48" as="geometry" />
        </mxCell>
        <mxCell id="sCddKqGL02GCPFZwy7CX-22" value="Amazon&lt;br&gt;S3 Bucket" style="text;strokeColor=none;align=center;fillColor=none;html=1;verticalAlign=middle;whiteSpace=wrap;rounded=0;" vertex="1" parent="sCddKqGL02GCPFZwy7CX-35">
          <mxGeometry y="57.25" width="60" height="33.75" as="geometry" />
        </mxCell>
        <mxCell id="sCddKqGL02GCPFZwy7CX-41" style="edgeStyle=orthogonalEdgeStyle;rounded=0;orthogonalLoop=1;jettySize=auto;html=1;exitX=1;exitY=0.5;exitDx=0;exitDy=0;exitPerimeter=0;" edge="1" parent="1" source="sCddKqGL02GCPFZwy7CX-36" target="sCddKqGL02GCPFZwy7CX-39">
          <mxGeometry relative="1" as="geometry" />
        </mxCell>
        <mxCell id="sCddKqGL02GCPFZwy7CX-36" value="" style="sketch=0;points=[[0,0,0],[0.25,0,0],[0.5,0,0],[0.75,0,0],[1,0,0],[0,1,0],[0.25,1,0],[0.5,1,0],[0.75,1,0],[1,1,0],[0,0.25,0],[0,0.5,0],[0,0.75,0],[1,0.25,0],[1,0.5,0],[1,0.75,0]];outlineConnect=0;fontColor=#232F3E;fillColor=#8C4FFF;strokeColor=#ffffff;dashed=0;verticalLabelPosition=bottom;verticalAlign=top;align=center;html=1;fontSize=12;fontStyle=0;aspect=fixed;shape=mxgraph.aws4.resourceIcon;resIcon=mxgraph.aws4.api_gateway;" vertex="1" parent="1">
          <mxGeometry x="450" y="290" width="50" height="50" as="geometry" />
        </mxCell>
        <mxCell id="sCddKqGL02GCPFZwy7CX-37" style="edgeStyle=orthogonalEdgeStyle;rounded=0;orthogonalLoop=1;jettySize=auto;html=1;exitX=1;exitY=0.5;exitDx=0;exitDy=0;exitPerimeter=0;entryX=0;entryY=0.5;entryDx=0;entryDy=0;entryPerimeter=0;" edge="1" parent="1" source="sCddKqGL02GCPFZwy7CX-18" target="sCddKqGL02GCPFZwy7CX-36">
          <mxGeometry relative="1" as="geometry" />
        </mxCell>
        <mxCell id="sCddKqGL02GCPFZwy7CX-38" value="API Gateway" style="text;strokeColor=none;align=center;fillColor=none;html=1;verticalAlign=middle;whiteSpace=wrap;rounded=0;" vertex="1" parent="1">
          <mxGeometry x="440" y="256.25" width="70" height="33.75" as="geometry" />
        </mxCell>
        <mxCell id="sCddKqGL02GCPFZwy7CX-42" style="edgeStyle=orthogonalEdgeStyle;rounded=0;orthogonalLoop=1;jettySize=auto;html=1;exitX=1;exitY=0.5;exitDx=0;exitDy=0;exitPerimeter=0;entryX=0;entryY=0.5;entryDx=0;entryDy=0;entryPerimeter=0;" edge="1" parent="1" source="sCddKqGL02GCPFZwy7CX-39" target="sCddKqGL02GCPFZwy7CX-47">
          <mxGeometry relative="1" as="geometry">
            <mxPoint x="670" y="315" as="targetPoint" />
          </mxGeometry>
        </mxCell>
        <mxCell id="sCddKqGL02GCPFZwy7CX-39" value="" style="outlineConnect=0;dashed=0;verticalLabelPosition=bottom;verticalAlign=top;align=center;html=1;shape=mxgraph.aws3.lambda_function;fillColor=#F58534;gradientColor=none;" vertex="1" parent="1">
          <mxGeometry x="550" y="279.5" width="70" height="71" as="geometry" />
        </mxCell>
        <mxCell id="sCddKqGL02GCPFZwy7CX-45" style="edgeStyle=orthogonalEdgeStyle;rounded=0;orthogonalLoop=1;jettySize=auto;html=1;exitX=0.5;exitY=1;exitDx=0;exitDy=0;exitPerimeter=0;entryX=0;entryY=0.25;entryDx=0;entryDy=0;entryPerimeter=0;" edge="1" parent="1" source="sCddKqGL02GCPFZwy7CX-44" target="sCddKqGL02GCPFZwy7CX-18">
          <mxGeometry relative="1" as="geometry">
            <Array as="points">
              <mxPoint x="340" y="210" />
              <mxPoint x="340" y="303" />
            </Array>
          </mxGeometry>
        </mxCell>
        <mxCell id="sCddKqGL02GCPFZwy7CX-44" value="" style="sketch=0;points=[[0,0,0],[0.25,0,0],[0.5,0,0],[0.75,0,0],[1,0,0],[0,1,0],[0.25,1,0],[0.5,1,0],[0.75,1,0],[1,1,0],[0,0.25,0],[0,0.5,0],[0,0.75,0],[1,0.25,0],[1,0.5,0],[1,0.75,0]];outlineConnect=0;fontColor=#232F3E;fillColor=#DD344C;strokeColor=#ffffff;dashed=0;verticalLabelPosition=bottom;verticalAlign=top;align=center;html=1;fontSize=12;fontStyle=0;aspect=fixed;shape=mxgraph.aws4.resourceIcon;resIcon=mxgraph.aws4.cognito;" vertex="1" parent="1">
          <mxGeometry x="350" y="150" width="60" height="60" as="geometry" />
        </mxCell>
        <mxCell id="sCddKqGL02GCPFZwy7CX-46" value="Amazon&lt;br&gt;Cognito" style="text;strokeColor=none;align=center;fillColor=none;html=1;verticalAlign=middle;whiteSpace=wrap;rounded=0;" vertex="1" parent="1">
          <mxGeometry x="345" y="210" width="70" height="33.75" as="geometry" />
        </mxCell>
        <mxCell id="sCddKqGL02GCPFZwy7CX-47" value="" style="sketch=0;points=[[0,0,0],[0.25,0,0],[0.5,0,0],[0.75,0,0],[1,0,0],[0,1,0],[0.25,1,0],[0.5,1,0],[0.75,1,0],[1,1,0],[0,0.25,0],[0,0.5,0],[0,0.75,0],[1,0.25,0],[1,0.5,0],[1,0.75,0]];outlineConnect=0;fontColor=#232F3E;fillColor=#C925D1;strokeColor=#ffffff;dashed=0;verticalLabelPosition=bottom;verticalAlign=top;align=center;html=1;fontSize=12;fontStyle=0;aspect=fixed;shape=mxgraph.aws4.resourceIcon;resIcon=mxgraph.aws4.dynamodb;" vertex="1" parent="1">
          <mxGeometry x="680" y="278" width="74" height="74" as="geometry" />
        </mxCell>
        <mxCell id="sCddKqGL02GCPFZwy7CX-48" value="Lambda Function" style="text;strokeColor=none;align=center;fillColor=none;html=1;verticalAlign=middle;whiteSpace=wrap;rounded=0;" vertex="1" parent="1">
          <mxGeometry x="550" y="243.75" width="70" height="33.75" as="geometry" />
        </mxCell>
        <mxCell id="sCddKqGL02GCPFZwy7CX-49" value="DynamoDB" style="text;strokeColor=none;align=center;fillColor=none;html=1;verticalAlign=middle;whiteSpace=wrap;rounded=0;" vertex="1" parent="1">
          <mxGeometry x="682" y="243.75" width="70" height="33.75" as="geometry" />
        </mxCell>
        <mxCell id="sCddKqGL02GCPFZwy7CX-52" value="&lt;b style=&quot;font-size: 21px;&quot;&gt;Phong Phu Vu&lt;br style=&quot;font-size: 21px;&quot;&gt;Project 2&lt;/b&gt;" style="text;strokeColor=none;align=center;fillColor=none;html=1;verticalAlign=middle;whiteSpace=wrap;rounded=0;fontSize=21;" vertex="1" parent="1">
          <mxGeometry x="40" width="155" height="100" as="geometry" />
        </mxCell>
      </root>
    </mxGraphModel>
  </diagram>
</mxfile>
